<svg xmlns="http://www.w3.org/2000/svg" width="296" height="362" viewBox="0 0 296 362" version="1.1">
	<path d="M 169 21.613 C 153.325 33.450, 139.860 43.761, 139.077 44.526 C 137.851 45.724, 138.060 46.074, 140.577 47.038 C 152.897 51.761, 187.481 29.659, 197.016 10.969 C 198.944 7.190, 199.761 -0.047, 198.250 0.046 C 197.838 0.071, 184.675 9.777, 169 21.613 M 127.653 10.213 C 127.308 15.321, 126.729 25.699, 126.366 33.275 C 125.770 45.727, 125.862 46.990, 127.327 46.428 C 128.219 46.086, 130.197 43.262, 131.724 40.153 C 134.326 34.853, 134.500 33.687, 134.500 21.500 C 134.500 10.282, 134.225 8.031, 132.491 5.080 C 129.108 -0.678, 128.332 0.145, 127.653 10.213 M 51.395 23.436 C 52.537 27.987, 56.095 31.911, 63.691 36.996 C 77.223 46.053, 95.573 51.473, 110.591 50.848 C 117.615 50.555, 119.299 50.146, 121.167 48.278 C 122.389 47.056, 123.189 45.896, 122.944 45.701 C 122.700 45.506, 106.975 40.034, 88 33.542 C 69.025 27.049, 52.870 21.497, 52.100 21.204 C 51.017 20.792, 50.858 21.297, 51.395 23.436 M 131.090 67.047 C 98.791 71.104, 69.538 85.018, 46.251 107.401 C 36.631 116.647, 25 130.578, 25 132.853 C 25 133.404, 34.214 139.796, 45.476 147.057 L 65.952 160.259 64.104 162.879 C 61.438 166.661, 57.106 175.481, 54.454 182.527 C 45.679 205.839, 47.348 236.351, 58.647 259.181 L 60.964 263.862 42.010 277.571 C 30.589 285.832, 23.321 291.722, 23.724 292.390 C 30.236 303.192, 46.408 320.440, 58.816 329.817 C 112.922 370.707, 187.407 369.704, 239.650 327.382 C 267.675 304.678, 286.224 273.762, 292.678 239 C 295.101 225.953, 295.104 199.075, 292.684 186 C 280.172 118.381, 221.379 68.429, 152.027 66.494 C 144.587 66.286, 135.166 66.535, 131.090 67.047 M 142.174 215.314 C 137.654 220.126, 140.650 228, 147 228 C 153.459 228, 156.495 219.692, 151.686 215.174 C 148.683 212.354, 144.904 212.409, 142.174 215.314" stroke="none" fill="black" fill-rule="evenodd"/>
</svg>